<svg width="810" height="578" viewBox="0 0 810 578" fill="none" xmlns="http://www.w3.org/2000/svg">
<g clip-path="url(#clip0_205_97)">
<path d="M133.987 280.905H142.987V199.905H133.987V170.385H216.607C231.607 170.385 243.307 173.445 251.707 179.565C260.107 185.685 264.307 194.445 264.307 205.845C264.307 212.925 262.627 218.925 259.267 223.845C255.907 228.645 251.947 232.305 247.387 234.825C242.947 237.225 238.627 238.845 234.427 239.685V241.485C242.947 242.325 250.627 245.025 257.467 249.585C264.307 254.145 267.727 262.305 267.727 274.065C267.727 286.665 262.987 295.905 253.507 301.785C244.027 307.545 231.727 310.425 216.607 310.425H133.987V280.905ZM203.107 229.425C206.587 229.425 209.167 228.525 210.847 226.725C212.647 224.805 213.547 221.865 213.547 217.905V211.425C213.547 207.465 212.647 204.585 210.847 202.785C209.167 200.865 206.587 199.905 203.107 199.905H193.387V229.425H203.107ZM204.367 280.905C207.847 280.905 210.427 280.005 212.107 278.205C213.907 276.285 214.807 273.345 214.807 269.385V261.465C214.807 257.505 213.907 254.625 212.107 252.825C210.427 250.905 207.847 249.945 204.367 249.945H193.387V280.905H204.367ZM378.137 280.905V310.425H330.617V298.185C327.977 302.025 324.257 305.445 319.457 308.445C314.777 311.445 309.017 312.945 302.177 312.945C293.177 312.945 286.097 310.545 280.937 305.745C275.777 300.945 273.197 294.165 273.197 285.405C273.197 262.725 292.457 251.085 330.977 250.485C330.617 246.405 329.057 243.645 326.297 242.205C323.537 240.645 318.857 239.865 312.257 239.865C306.857 239.865 301.037 240.465 294.797 241.665C288.677 242.745 283.037 244.245 277.877 246.165V213.045C284.237 211.485 291.137 210.225 298.577 209.265C306.017 208.305 313.277 207.825 320.357 207.825C338.237 207.825 351.017 211.065 358.697 217.545C366.377 224.025 370.217 234.045 370.217 247.605V280.905H378.137ZM330.617 268.305C325.217 268.305 321.017 269.025 318.017 270.465C315.137 271.905 313.697 274.305 313.697 277.665C313.697 279.705 314.297 281.385 315.497 282.705C316.817 283.905 318.617 284.505 320.897 284.505C324.017 284.505 326.417 283.185 328.097 280.545C329.777 277.905 330.617 274.185 330.617 269.385V268.305ZM460.799 207.825C463.199 207.825 465.479 208.065 467.639 208.545C469.799 209.025 471.599 209.625 473.039 210.345V244.725C468.119 242.685 462.839 241.665 457.199 241.665C449.639 241.665 443.819 243.645 439.739 247.605C435.659 251.565 433.619 257.445 433.619 265.245V280.905H449.819V310.425H384.299V280.905H392.219V239.865H384.299V210.345H433.619V223.485C436.979 218.445 440.819 214.605 445.139 211.965C449.459 209.205 454.679 207.825 460.799 207.825ZM587.401 280.905H595.141V310.425H551.041L532.501 275.865H528.181V310.425H478.861V280.905H486.781V199.905H478.861V170.385H528.181V243.465H532.501L554.821 210.345H592.801V239.865H585.421L570.121 256.965L587.401 280.905Z" fill="#ED924D"/>
<path d="M302.329 351.425V331.061H309.786C311.231 331.061 312.428 331.3 313.376 331.777C314.324 332.248 315.033 332.887 315.504 333.696C315.974 334.498 316.21 335.403 316.21 336.411C316.21 337.259 316.054 337.975 315.742 338.558C315.431 339.135 315.013 339.599 314.49 339.95C313.972 340.295 313.402 340.547 312.779 340.706V340.905C313.455 340.938 314.115 341.157 314.758 341.561C315.408 341.959 315.945 342.526 316.369 343.261C316.793 343.997 317.005 344.892 317.005 345.946C317.005 346.987 316.76 347.921 316.269 348.75C315.785 349.572 315.036 350.225 314.022 350.709C313.008 351.186 311.712 351.425 310.134 351.425H302.329ZM305.401 348.79H309.836C311.308 348.79 312.362 348.505 312.998 347.935C313.634 347.365 313.953 346.652 313.953 345.797C313.953 345.154 313.79 344.564 313.465 344.027C313.141 343.49 312.677 343.063 312.073 342.744C311.477 342.426 310.767 342.267 309.945 342.267H305.401V348.79ZM305.401 339.871H309.518C310.207 339.871 310.827 339.738 311.377 339.473C311.934 339.208 312.375 338.837 312.7 338.359C313.031 337.876 313.197 337.305 313.197 336.649C313.197 335.807 312.902 335.101 312.312 334.531C311.722 333.961 310.817 333.676 309.597 333.676H305.401V339.871ZM320.649 351.425V331.061H333.416V333.706H323.722V339.911H332.75V342.546H323.722V348.78H333.536V351.425H320.649ZM348.627 336.411C348.521 335.469 348.083 334.74 347.314 334.223C346.546 333.699 345.578 333.438 344.411 333.438C343.576 333.438 342.853 333.57 342.243 333.835C341.634 334.094 341.16 334.452 340.822 334.909C340.49 335.36 340.324 335.874 340.324 336.45C340.324 336.934 340.437 337.352 340.662 337.703C340.894 338.055 341.196 338.35 341.567 338.588C341.945 338.82 342.349 339.016 342.78 339.175C343.211 339.327 343.626 339.453 344.023 339.553L346.012 340.07C346.662 340.229 347.328 340.444 348.01 340.716C348.693 340.988 349.326 341.346 349.91 341.79C350.493 342.234 350.964 342.784 351.322 343.44C351.686 344.097 351.868 344.882 351.868 345.797C351.868 346.95 351.57 347.975 350.974 348.869C350.384 349.764 349.525 350.47 348.398 350.987C347.278 351.504 345.922 351.763 344.331 351.763C342.807 351.763 341.488 351.521 340.374 351.037C339.26 350.553 338.389 349.867 337.759 348.979C337.129 348.084 336.781 347.023 336.715 345.797H339.797C339.857 346.533 340.096 347.146 340.513 347.636C340.938 348.12 341.478 348.482 342.134 348.72C342.797 348.952 343.523 349.068 344.312 349.068C345.18 349.068 345.952 348.932 346.628 348.661C347.311 348.382 347.848 347.998 348.239 347.507C348.63 347.01 348.826 346.43 348.826 345.767C348.826 345.164 348.653 344.67 348.309 344.286C347.971 343.901 347.51 343.583 346.927 343.331C346.35 343.079 345.697 342.857 344.968 342.665L342.562 342.009C340.931 341.564 339.638 340.912 338.684 340.05C337.736 339.188 337.262 338.048 337.262 336.629C337.262 335.456 337.58 334.432 338.216 333.557C338.853 332.682 339.715 332.002 340.802 331.519C341.889 331.028 343.115 330.783 344.481 330.783C345.859 330.783 347.076 331.025 348.13 331.509C349.19 331.993 350.026 332.659 350.635 333.507C351.245 334.349 351.564 335.317 351.59 336.411H348.627ZM354.536 333.706V331.061H370.296V333.706H363.942V351.425H360.879V333.706H354.536ZM381.188 351.425V331.061H393.816V333.706H384.261V339.911H392.911V342.546H384.261V351.425H381.188ZM397.595 351.425V331.061H404.853C406.431 331.061 407.74 331.333 408.781 331.877C409.828 332.42 410.61 333.172 411.127 334.134C411.644 335.088 411.903 336.192 411.903 337.445C411.903 338.691 411.641 339.788 411.117 340.736C410.6 341.677 409.818 342.41 408.771 342.933C407.73 343.457 406.421 343.719 404.843 343.719H399.345V341.074H404.565C405.559 341.074 406.368 340.931 406.991 340.646C407.621 340.361 408.081 339.947 408.373 339.403C408.665 338.86 408.811 338.207 408.811 337.445C408.811 336.676 408.661 336.01 408.363 335.446C408.071 334.883 407.611 334.452 406.981 334.153C406.358 333.849 405.539 333.696 404.525 333.696H400.667V351.425H397.595ZM407.647 342.237L412.678 351.425H409.178L404.247 342.237H407.647ZM418.714 331.061V351.425H415.642V331.061H418.714ZM423.188 351.425V331.061H435.955V333.706H426.261V339.911H435.289V342.546H426.261V348.78H436.075V351.425H423.188ZM456.496 331.061V351.425H453.672L443.321 336.49H443.132V351.425H440.059V331.061H442.903L453.264 346.016H453.453V331.061H456.496ZM467.57 351.425H460.977V331.061H467.779C469.774 331.061 471.487 331.469 472.919 332.284C474.351 333.093 475.448 334.256 476.21 335.774C476.979 337.286 477.364 339.099 477.364 341.213C477.364 343.334 476.976 345.157 476.2 346.682C475.432 348.207 474.318 349.38 472.86 350.202C471.401 351.017 469.638 351.425 467.57 351.425ZM464.05 348.74H467.401C468.952 348.74 470.241 348.448 471.269 347.865C472.296 347.275 473.065 346.423 473.575 345.31C474.086 344.189 474.341 342.824 474.341 341.213C474.341 339.616 474.086 338.26 473.575 337.146C473.072 336.033 472.319 335.188 471.318 334.611C470.317 334.034 469.075 333.746 467.59 333.746H464.05V348.74ZM492.291 336.411C492.185 335.469 491.747 334.74 490.979 334.223C490.21 333.699 489.242 333.438 488.075 333.438C487.24 333.438 486.517 333.57 485.907 333.835C485.298 334.094 484.824 334.452 484.486 334.909C484.154 335.36 483.988 335.874 483.988 336.45C483.988 336.934 484.101 337.352 484.327 337.703C484.559 338.055 484.86 338.35 485.231 338.588C485.609 338.82 486.014 339.016 486.444 339.175C486.875 339.327 487.29 339.453 487.687 339.553L489.676 340.07C490.326 340.229 490.992 340.444 491.675 340.716C492.357 340.988 492.99 341.346 493.574 341.79C494.157 342.234 494.628 342.784 494.986 343.44C495.35 344.097 495.532 344.882 495.532 345.797C495.532 346.95 495.234 347.975 494.638 348.869C494.048 349.764 493.189 350.47 492.062 350.987C490.942 351.504 489.586 351.763 487.996 351.763C486.471 351.763 485.152 351.521 484.038 351.037C482.925 350.553 482.053 349.867 481.423 348.979C480.793 348.084 480.445 347.023 480.379 345.797H483.461C483.521 346.533 483.76 347.146 484.177 347.636C484.602 348.12 485.142 348.482 485.798 348.72C486.461 348.952 487.187 349.068 487.976 349.068C488.844 349.068 489.616 348.932 490.292 348.661C490.975 348.382 491.512 347.998 491.903 347.507C492.294 347.01 492.49 346.43 492.49 345.767C492.49 345.164 492.318 344.67 491.973 344.286C491.635 343.901 491.174 343.583 490.591 343.331C490.014 343.079 489.361 342.857 488.632 342.665L486.226 342.009C484.595 341.564 483.302 340.912 482.348 340.05C481.4 339.188 480.926 338.048 480.926 336.629C480.926 335.456 481.244 334.432 481.881 333.557C482.517 332.682 483.379 332.002 484.466 331.519C485.553 331.028 486.779 330.783 488.145 330.783C489.523 330.783 490.74 331.025 491.794 331.509C492.854 331.993 493.69 332.659 494.3 333.507C494.909 334.349 495.228 335.317 495.254 336.411H492.291ZM506.614 351.425V331.061H514.072C515.517 331.061 516.713 331.3 517.661 331.777C518.609 332.248 519.318 332.887 519.789 333.696C520.26 334.498 520.495 335.403 520.495 336.411C520.495 337.259 520.339 337.975 520.028 338.558C519.716 339.135 519.298 339.599 518.775 339.95C518.258 340.295 517.688 340.547 517.064 340.706V340.905C517.741 340.938 518.4 341.157 519.043 341.561C519.693 341.959 520.23 342.526 520.654 343.261C521.078 343.997 521.29 344.892 521.29 345.946C521.29 346.987 521.045 347.921 520.555 348.75C520.071 349.572 519.322 350.225 518.307 350.709C517.293 351.186 515.997 351.425 514.42 351.425H506.614ZM509.687 348.79H514.121C515.593 348.79 516.647 348.505 517.283 347.935C517.92 347.365 518.238 346.652 518.238 345.797C518.238 345.154 518.075 344.564 517.751 344.027C517.426 343.49 516.962 343.063 516.358 342.744C515.762 342.426 515.053 342.267 514.231 342.267H509.687V348.79ZM509.687 339.871H513.803C514.492 339.871 515.112 339.738 515.662 339.473C516.219 339.208 516.66 338.837 516.985 338.359C517.316 337.876 517.482 337.305 517.482 336.649C517.482 335.807 517.187 335.101 516.597 334.531C516.007 333.961 515.102 333.676 513.883 333.676H509.687V339.871ZM526.655 351.425H523.393L530.721 331.061H534.271L541.599 351.425H538.338L532.581 334.76H532.422L526.655 351.425ZM527.202 343.45H537.781V346.036H527.202V343.45ZM544.54 351.425V331.061H551.798C553.376 331.061 554.685 331.333 555.726 331.877C556.773 332.42 557.556 333.172 558.073 334.134C558.59 335.088 558.848 336.192 558.848 337.445C558.848 338.691 558.586 339.788 558.063 340.736C557.546 341.677 556.763 342.41 555.716 342.933C554.675 343.457 553.366 343.719 551.789 343.719H546.29V341.074H551.51C552.504 341.074 553.313 340.931 553.936 340.646C554.566 340.361 555.027 339.947 555.318 339.403C555.61 338.86 555.756 338.207 555.756 337.445C555.756 336.676 555.607 336.01 555.308 335.446C555.017 334.883 554.556 334.452 553.926 334.153C553.303 333.849 552.485 333.696 551.47 333.696H547.612V351.425H544.54ZM554.593 342.237L559.624 351.425H556.124L551.192 342.237H554.593ZM562.587 351.425V331.061H565.659V340.786H565.908L574.449 331.061H578.317L570.104 340.229L578.347 351.425H574.648L568.066 342.327L565.659 345.091V351.425H562.587ZM592.232 336.411C592.126 335.469 591.689 334.74 590.92 334.223C590.151 333.699 589.183 333.438 588.017 333.438C587.181 333.438 586.459 333.57 585.849 333.835C585.239 334.094 584.765 334.452 584.427 334.909C584.096 335.36 583.93 335.874 583.93 336.45C583.93 336.934 584.043 337.352 584.268 337.703C584.5 338.055 584.802 338.35 585.173 338.588C585.551 338.82 585.955 339.016 586.386 339.175C586.817 339.327 587.231 339.453 587.629 339.553L589.617 340.07C590.267 340.229 590.933 340.444 591.616 340.716C592.299 340.988 592.932 341.346 593.515 341.79C594.098 342.234 594.569 342.784 594.927 343.44C595.292 344.097 595.474 344.882 595.474 345.797C595.474 346.95 595.176 347.975 594.579 348.869C593.989 349.764 593.131 350.47 592.004 350.987C590.883 351.504 589.528 351.763 587.937 351.763C586.412 351.763 585.093 351.521 583.98 351.037C582.866 350.553 581.994 349.867 581.365 348.979C580.735 348.084 580.387 347.023 580.32 345.797H583.403C583.463 346.533 583.701 347.146 584.119 347.636C584.543 348.12 585.083 348.482 585.74 348.72C586.402 348.952 587.128 349.068 587.917 349.068C588.785 349.068 589.558 348.932 590.234 348.661C590.917 348.382 591.454 347.998 591.845 347.507C592.236 347.01 592.431 346.43 592.431 345.767C592.431 345.164 592.259 344.67 591.914 344.286C591.576 343.901 591.115 343.583 590.532 343.331C589.955 343.079 589.302 342.857 588.573 342.665L586.167 342.009C584.536 341.564 583.244 340.912 582.289 340.05C581.341 339.188 580.867 338.048 580.867 336.629C580.867 335.456 581.186 334.432 581.822 333.557C582.458 332.682 583.32 332.002 584.407 331.519C585.494 331.028 586.721 330.783 588.086 330.783C589.465 330.783 590.681 331.025 591.735 331.509C592.796 331.993 593.631 332.659 594.241 333.507C594.851 334.349 595.169 335.317 595.195 336.411H592.232Z" fill="#ED924D"/>
<line x1="489.5" y1="453.425" x2="489.5" y2="503.425" stroke="#ED924D" stroke-width="11"/>
<path d="M539.937 479.226C549.22 479.227 556.778 486.785 556.778 496.068C556.778 499.587 555.658 503.02 553.631 505.861C552.395 507.592 552.396 509.914 553.631 511.645C555.658 514.486 556.778 517.918 556.778 521.437C556.776 536.018 539.328 543.7 528.564 533.856C526.414 531.883 524.835 529.424 523.943 526.716L523.774 526.171L523.711 525.973C523.052 524.019 521.253 522.683 519.204 522.599L518.999 522.595L461.641 522.595C459.439 522.595 457.487 524.044 456.866 526.172L456.859 526.19L456.855 526.209C454.922 533.164 447.988 538.386 440.747 538.279H440.697C427.082 538.302 419.069 522.681 427.001 511.654L427.007 511.646L427.12 511.482C428.242 509.77 428.204 507.538 427.008 505.861C424.98 503.02 423.861 499.587 423.861 496.068V496.037L423.86 496.006C423.675 487.046 431.68 479.041 440.639 479.226L440.671 479.227H440.702C444.973 479.227 449.039 480.825 452.164 483.732L452.165 483.733C454.318 485.733 455.883 488.224 456.751 490.963L456.974 491.71C457.628 493.727 459.504 495.172 461.715 495.172L518.925 495.171C521.205 495.171 523.131 493.632 523.724 491.513C524.55 488.559 526.178 485.869 528.475 483.732C531.599 480.825 535.666 479.226 539.937 479.226Z" fill="#F7FCFA" stroke="#ED924D" stroke-width="6"/>
<path d="M332.642 375.414C358.598 410.844 395.539 436.7 437.715 448.957C479.89 461.215 524.935 459.186 565.838 443.187C606.741 427.188 641.208 398.116 663.875 360.496C686.542 322.876 696.136 278.819 691.166 235.18C686.195 191.542 666.938 150.77 636.392 119.211C605.846 87.6525 565.724 67.0766 522.27 60.6861C478.817 54.2956 434.47 62.4489 396.131 83.877C357.792 105.305 327.612 138.806 310.288 179.166L320.59 183.588C336.939 145.5 365.42 113.885 401.6 93.6628C437.781 73.4408 479.632 65.7465 520.639 71.7773C561.646 77.8081 599.51 97.2257 628.337 127.008C657.163 156.79 675.336 195.267 680.027 236.449C684.718 277.631 675.663 319.209 654.273 354.711C632.882 390.213 600.355 417.648 561.755 432.747C523.154 447.845 480.645 449.76 440.843 438.192C401.042 426.625 366.18 402.225 341.685 368.789L332.642 375.414Z" fill="#ED924D"/>
</g>
<defs>
<clipPath id="clip0_205_97">
<rect width="810" height="578" fill="white"/>
</clipPath>
</defs>
</svg>
